<mxfile host="app.diagrams.net" modified="2021-08-20T14:52:10.869Z" agent="5.0 (Windows)" etag="VPdk4tz8BPIn54ogBlsE" version="14.9.8" type="github">
  <diagram id="C5RBs43oDa-KdzZeNtuy" name="Page-1">
    <mxGraphModel dx="1865" dy="535" grid="1" gridSize="10" guides="1" tooltips="1" connect="1" arrows="1" fold="1" page="1" pageScale="1" pageWidth="827" pageHeight="1169" math="0" shadow="0">
      <root>
        <mxCell id="WIyWlLk6GJQsqaUBKTNV-0" />
        <mxCell id="WIyWlLk6GJQsqaUBKTNV-1" parent="WIyWlLk6GJQsqaUBKTNV-0" />
        <mxCell id="WIyWlLk6GJQsqaUBKTNV-2" value="" style="rounded=0;html=1;jettySize=auto;orthogonalLoop=1;fontSize=11;endArrow=block;endFill=0;endSize=8;strokeWidth=1;shadow=0;labelBackgroundColor=none;edgeStyle=orthogonalEdgeStyle;" parent="WIyWlLk6GJQsqaUBKTNV-1" source="WIyWlLk6GJQsqaUBKTNV-3" edge="1">
          <mxGeometry relative="1" as="geometry">
            <mxPoint x="160" y="160" as="targetPoint" />
            <Array as="points">
              <mxPoint x="190" y="80" />
              <mxPoint x="190" y="160" />
            </Array>
          </mxGeometry>
        </mxCell>
        <mxCell id="43zXW1gvgtbVfvHvfjgB-4" style="edgeStyle=orthogonalEdgeStyle;rounded=0;orthogonalLoop=1;jettySize=auto;html=1;entryX=0.42;entryY=0.017;entryDx=0;entryDy=0;entryPerimeter=0;" edge="1" parent="WIyWlLk6GJQsqaUBKTNV-1" source="WIyWlLk6GJQsqaUBKTNV-3" target="43zXW1gvgtbVfvHvfjgB-29">
          <mxGeometry relative="1" as="geometry">
            <mxPoint x="660" y="190" as="targetPoint" />
          </mxGeometry>
        </mxCell>
        <mxCell id="WIyWlLk6GJQsqaUBKTNV-3" value="&lt;font style=&quot;font-size: 26px&quot;&gt;&lt;b&gt;RULE&lt;/b&gt;&lt;/font&gt;" style="rounded=1;whiteSpace=wrap;html=1;fontSize=12;glass=0;strokeWidth=1;shadow=0;" parent="WIyWlLk6GJQsqaUBKTNV-1" vertex="1">
          <mxGeometry x="350" y="60" width="120" height="40" as="geometry" />
        </mxCell>
        <mxCell id="43zXW1gvgtbVfvHvfjgB-12" style="edgeStyle=orthogonalEdgeStyle;rounded=0;orthogonalLoop=1;jettySize=auto;html=1;" edge="1" parent="WIyWlLk6GJQsqaUBKTNV-1" source="43zXW1gvgtbVfvHvfjgB-11" target="43zXW1gvgtbVfvHvfjgB-13">
          <mxGeometry relative="1" as="geometry">
            <mxPoint x="40" y="280" as="targetPoint" />
          </mxGeometry>
        </mxCell>
        <mxCell id="43zXW1gvgtbVfvHvfjgB-23" style="edgeStyle=orthogonalEdgeStyle;rounded=0;orthogonalLoop=1;jettySize=auto;html=1;" edge="1" parent="WIyWlLk6GJQsqaUBKTNV-1" source="43zXW1gvgtbVfvHvfjgB-11" target="43zXW1gvgtbVfvHvfjgB-24">
          <mxGeometry relative="1" as="geometry">
            <mxPoint x="400" y="250" as="targetPoint" />
            <Array as="points">
              <mxPoint x="400" y="190" />
            </Array>
          </mxGeometry>
        </mxCell>
        <mxCell id="43zXW1gvgtbVfvHvfjgB-11" value="&lt;font style=&quot;font-size: 14px&quot;&gt;&lt;b&gt;Rules Matches&lt;br&gt;Resource&lt;/b&gt;&lt;/font&gt;" style="strokeWidth=2;html=1;shape=mxgraph.flowchart.terminator;whiteSpace=wrap;" vertex="1" parent="WIyWlLk6GJQsqaUBKTNV-1">
          <mxGeometry x="140" y="160" width="100" height="60" as="geometry" />
        </mxCell>
        <mxCell id="43zXW1gvgtbVfvHvfjgB-14" style="edgeStyle=orthogonalEdgeStyle;rounded=0;orthogonalLoop=1;jettySize=auto;html=1;" edge="1" parent="WIyWlLk6GJQsqaUBKTNV-1" source="43zXW1gvgtbVfvHvfjgB-13" target="43zXW1gvgtbVfvHvfjgB-15">
          <mxGeometry relative="1" as="geometry">
            <mxPoint x="-80" y="360" as="targetPoint" />
          </mxGeometry>
        </mxCell>
        <mxCell id="43zXW1gvgtbVfvHvfjgB-18" style="edgeStyle=orthogonalEdgeStyle;rounded=0;orthogonalLoop=1;jettySize=auto;html=1;entryX=0.58;entryY=0;entryDx=0;entryDy=0;entryPerimeter=0;" edge="1" parent="WIyWlLk6GJQsqaUBKTNV-1" source="43zXW1gvgtbVfvHvfjgB-13" target="43zXW1gvgtbVfvHvfjgB-17">
          <mxGeometry relative="1" as="geometry" />
        </mxCell>
        <mxCell id="43zXW1gvgtbVfvHvfjgB-13" value="&lt;font style=&quot;font-size: 15px&quot;&gt;&lt;b&gt;Patched Resource&lt;br&gt;Generated&lt;/b&gt;&lt;/font&gt;" style="strokeWidth=2;html=1;shape=mxgraph.flowchart.terminator;whiteSpace=wrap;" vertex="1" parent="WIyWlLk6GJQsqaUBKTNV-1">
          <mxGeometry x="-10" y="250" width="120" height="70" as="geometry" />
        </mxCell>
        <mxCell id="43zXW1gvgtbVfvHvfjgB-19" style="edgeStyle=orthogonalEdgeStyle;rounded=0;orthogonalLoop=1;jettySize=auto;html=1;" edge="1" parent="WIyWlLk6GJQsqaUBKTNV-1" source="43zXW1gvgtbVfvHvfjgB-15" target="43zXW1gvgtbVfvHvfjgB-20">
          <mxGeometry relative="1" as="geometry">
            <mxPoint x="-80" y="440" as="targetPoint" />
          </mxGeometry>
        </mxCell>
        <mxCell id="43zXW1gvgtbVfvHvfjgB-15" value="&lt;b&gt;&lt;font style=&quot;font-size: 14px&quot;&gt;Matched with&lt;br&gt;User PR&lt;/font&gt;&lt;/b&gt;" style="strokeWidth=2;html=1;shape=mxgraph.flowchart.terminator;whiteSpace=wrap;" vertex="1" parent="WIyWlLk6GJQsqaUBKTNV-1">
          <mxGeometry x="-150" y="330" width="130" height="60" as="geometry" />
        </mxCell>
        <mxCell id="43zXW1gvgtbVfvHvfjgB-21" style="edgeStyle=orthogonalEdgeStyle;rounded=0;orthogonalLoop=1;jettySize=auto;html=1;" edge="1" parent="WIyWlLk6GJQsqaUBKTNV-1" source="43zXW1gvgtbVfvHvfjgB-17" target="43zXW1gvgtbVfvHvfjgB-22">
          <mxGeometry relative="1" as="geometry">
            <mxPoint x="170" y="410" as="targetPoint" />
          </mxGeometry>
        </mxCell>
        <mxCell id="43zXW1gvgtbVfvHvfjgB-17" value="&lt;b&gt;&lt;font style=&quot;font-size: 14px&quot;&gt;Doesn&#39;t Matched&lt;br&gt;User PR&lt;/font&gt;&lt;/b&gt;" style="strokeWidth=2;html=1;shape=mxgraph.flowchart.terminator;whiteSpace=wrap;" vertex="1" parent="WIyWlLk6GJQsqaUBKTNV-1">
          <mxGeometry x="120" y="320" width="140" height="60" as="geometry" />
        </mxCell>
        <mxCell id="43zXW1gvgtbVfvHvfjgB-20" value="&lt;b&gt;&lt;font style=&quot;font-size: 15px&quot; color=&quot;#330000&quot;&gt;PASS&lt;/font&gt;&lt;/b&gt;" style="strokeWidth=2;html=1;shape=mxgraph.flowchart.merge_or_storage;whiteSpace=wrap;" vertex="1" parent="WIyWlLk6GJQsqaUBKTNV-1">
          <mxGeometry x="-132.5" y="420" width="95" height="60" as="geometry" />
        </mxCell>
        <mxCell id="43zXW1gvgtbVfvHvfjgB-22" value="&lt;b&gt;&lt;font style=&quot;font-size: 15px&quot;&gt;FAIL&lt;/font&gt;&lt;/b&gt;" style="strokeWidth=2;html=1;shape=mxgraph.flowchart.merge_or_storage;whiteSpace=wrap;" vertex="1" parent="WIyWlLk6GJQsqaUBKTNV-1">
          <mxGeometry x="142.5" y="410" width="95" height="60" as="geometry" />
        </mxCell>
        <mxCell id="43zXW1gvgtbVfvHvfjgB-25" style="edgeStyle=orthogonalEdgeStyle;rounded=0;orthogonalLoop=1;jettySize=auto;html=1;" edge="1" parent="WIyWlLk6GJQsqaUBKTNV-1" source="43zXW1gvgtbVfvHvfjgB-24" target="43zXW1gvgtbVfvHvfjgB-26">
          <mxGeometry relative="1" as="geometry">
            <mxPoint x="400" y="330" as="targetPoint" />
          </mxGeometry>
        </mxCell>
        <mxCell id="43zXW1gvgtbVfvHvfjgB-24" value="&lt;font style=&quot;font-size: 14px&quot;&gt;&lt;b&gt;&lt;font style=&quot;font-size: 14px&quot;&gt;PR NOT &lt;br&gt;GENERATED&lt;/font&gt;&lt;/b&gt;&lt;/font&gt;" style="strokeWidth=2;html=1;shape=mxgraph.flowchart.terminator;whiteSpace=wrap;" vertex="1" parent="WIyWlLk6GJQsqaUBKTNV-1">
          <mxGeometry x="340" y="255" width="120" height="60" as="geometry" />
        </mxCell>
        <mxCell id="43zXW1gvgtbVfvHvfjgB-27" style="edgeStyle=orthogonalEdgeStyle;rounded=0;orthogonalLoop=1;jettySize=auto;html=1;" edge="1" parent="WIyWlLk6GJQsqaUBKTNV-1" source="43zXW1gvgtbVfvHvfjgB-26" target="43zXW1gvgtbVfvHvfjgB-28">
          <mxGeometry relative="1" as="geometry">
            <mxPoint x="400" y="410" as="targetPoint" />
          </mxGeometry>
        </mxCell>
        <mxCell id="43zXW1gvgtbVfvHvfjgB-26" value="&lt;b&gt;&lt;font style=&quot;font-size: 14px&quot;&gt;NO MUTATION&lt;br&gt;OCCURS&lt;/font&gt;&lt;/b&gt;" style="strokeWidth=2;html=1;shape=mxgraph.flowchart.terminator;whiteSpace=wrap;" vertex="1" parent="WIyWlLk6GJQsqaUBKTNV-1">
          <mxGeometry x="340" y="340" width="120" height="60" as="geometry" />
        </mxCell>
        <mxCell id="43zXW1gvgtbVfvHvfjgB-32" style="edgeStyle=orthogonalEdgeStyle;rounded=0;orthogonalLoop=1;jettySize=auto;html=1;" edge="1" parent="WIyWlLk6GJQsqaUBKTNV-1" source="43zXW1gvgtbVfvHvfjgB-28" target="43zXW1gvgtbVfvHvfjgB-33">
          <mxGeometry relative="1" as="geometry">
            <mxPoint x="400" y="530" as="targetPoint" />
          </mxGeometry>
        </mxCell>
        <mxCell id="43zXW1gvgtbVfvHvfjgB-28" value="&lt;b&gt;&lt;font style=&quot;font-size: 14px&quot;&gt;RESOURCE &lt;br&gt;==&lt;br&gt;PR&lt;/font&gt;&lt;/b&gt;" style="strokeWidth=2;html=1;shape=mxgraph.flowchart.terminator;whiteSpace=wrap;" vertex="1" parent="WIyWlLk6GJQsqaUBKTNV-1">
          <mxGeometry x="340" y="430" width="120" height="60" as="geometry" />
        </mxCell>
        <mxCell id="43zXW1gvgtbVfvHvfjgB-30" style="edgeStyle=orthogonalEdgeStyle;rounded=0;orthogonalLoop=1;jettySize=auto;html=1;" edge="1" parent="WIyWlLk6GJQsqaUBKTNV-1" source="43zXW1gvgtbVfvHvfjgB-29" target="43zXW1gvgtbVfvHvfjgB-31">
          <mxGeometry relative="1" as="geometry">
            <mxPoint x="670" y="400" as="targetPoint" />
          </mxGeometry>
        </mxCell>
        <mxCell id="43zXW1gvgtbVfvHvfjgB-29" value="&lt;font style=&quot;font-size: 14px&quot;&gt;&lt;b&gt;Rules Didn&#39;t&lt;br&gt;Match&lt;br&gt;Resources&lt;/b&gt;&lt;/font&gt;" style="strokeWidth=2;html=1;shape=mxgraph.flowchart.terminator;whiteSpace=wrap;" vertex="1" parent="WIyWlLk6GJQsqaUBKTNV-1">
          <mxGeometry x="610" y="160" width="140" height="80" as="geometry" />
        </mxCell>
        <mxCell id="43zXW1gvgtbVfvHvfjgB-31" value="&lt;b&gt;&lt;font style=&quot;font-size: 15px&quot;&gt;SKIP&lt;/font&gt;&lt;/b&gt;" style="strokeWidth=2;html=1;shape=mxgraph.flowchart.merge_or_storage;whiteSpace=wrap;" vertex="1" parent="WIyWlLk6GJQsqaUBKTNV-1">
          <mxGeometry x="632.5" y="370" width="95" height="60" as="geometry" />
        </mxCell>
        <mxCell id="43zXW1gvgtbVfvHvfjgB-33" value="&lt;b&gt;&lt;font style=&quot;font-size: 16px&quot;&gt;?&lt;/font&gt;&lt;/b&gt;" style="strokeWidth=2;html=1;shape=mxgraph.flowchart.merge_or_storage;whiteSpace=wrap;" vertex="1" parent="WIyWlLk6GJQsqaUBKTNV-1">
          <mxGeometry x="352.5" y="520" width="95" height="60" as="geometry" />
        </mxCell>
      </root>
    </mxGraphModel>
  </diagram>
</mxfile>
